<svg width="34" height="34" viewBox="0 0 34 34" fill="none" xmlns="http://www.w3.org/2000/svg">
<circle cx="17" cy="17" r="17" fill="#FF9E2B"/>
<path d="M10.7339 11.2458C10.3937 11.586 10.2026 12.0473 10.2026 12.5283C10.2026 13.0093 10.3937 13.4706 10.7339 13.8108C11.074 14.1509 11.5353 14.342 12.0163 14.342C12.4974 14.342 12.9587 14.1509 13.2988 13.8108C13.6389 13.4706 13.83 13.0093 13.83 12.5283C13.83 12.0473 13.6389 11.586 13.2988 11.2458C12.9587 10.9057 12.4974 10.7146 12.0163 10.7146C11.5353 10.7146 11.074 10.9057 10.7339 11.2458Z" fill="white"/>
<path d="M22.3673 11.2458C22.0272 10.9057 21.5658 10.7146 21.0848 10.7146C20.6038 10.7146 20.1425 10.9057 19.8023 11.2458C19.4622 11.586 19.2711 12.0473 19.2711 12.5283C19.2711 13.0093 19.4622 13.4706 19.8023 13.8108C20.1425 14.1509 20.6038 14.342 21.0848 14.342C21.5658 14.342 22.0272 14.1509 22.3673 13.8108C22.7074 13.4706 22.8985 13.0093 22.8985 12.5283C22.8985 12.0473 22.7074 11.586 22.3673 11.2458Z" fill="white"/>
<path d="M16.9966 20.573C14.8882 20.573 13.4146 19.5811 12.5531 18.6516H12.5644C12.0543 18.0961 11.1985 18.0621 10.643 18.5722C10.0876 19.0823 10.0536 19.9438 10.5637 20.4936C11.8049 21.8482 13.9644 23.2935 17.0023 23.2935C20.0402 23.2935 22.194 21.8425 23.4409 20.4936C23.951 19.9438 23.9114 19.0823 23.3616 18.5722C22.8118 18.0621 21.9503 18.1018 21.4402 18.6516C20.5787 19.5811 19.1051 20.573 16.9966 20.573Z" fill="white"/>
</svg>
