<svg width="18" height="21" viewBox="0 0 18 21" fill="none" xmlns="http://www.w3.org/2000/svg">
<g clip-path="url(#clip0_13_578)">
<path d="M15.5599 4.42739C15.5461 4.32739 15.4585 4.27204 15.3861 4.26595C14.8523 4.22583 14.3184 4.18604 13.7845 4.14656C13.7845 4.14656 12.7224 3.09211 12.6058 2.9754C12.4892 2.85876 12.2614 2.89424 12.1729 2.92026C12.1599 2.9241 11.9409 2.9917 11.5786 3.10382C11.2238 2.08287 10.5976 1.14465 9.49602 1.14465C9.46561 1.14465 9.43431 1.14588 9.40301 1.14766C9.08972 0.733345 8.70164 0.553345 8.36643 0.553345C5.80034 0.553345 4.57438 3.76122 4.18999 5.39136C3.19287 5.70033 2.48451 5.91999 2.39404 5.94841C1.83746 6.123 1.81986 6.14054 1.74678 6.66499C1.69178 7.06204 0.235474 18.3243 0.235474 18.3243L11.5833 20.4505L17.7319 19.1203C17.7319 19.1203 15.5734 4.52739 15.5599 4.42739ZM10.9514 3.2978L9.99116 3.59499C9.9915 3.52732 9.99184 3.46074 9.99184 3.38793C9.99184 2.75341 9.90376 2.24252 9.76246 1.83752C10.3301 1.90876 10.7081 2.55458 10.9514 3.2978ZM9.05835 1.96334C9.21616 2.35876 9.31876 2.92622 9.31876 3.69197C9.31876 3.73115 9.31842 3.76697 9.31808 3.80321C8.69362 3.99663 8.01506 4.20663 7.33499 4.41732C7.71684 2.94362 8.4326 2.23184 9.05835 1.96334ZM8.29595 1.24163C8.40671 1.24163 8.51828 1.27924 8.62506 1.35273C7.80267 1.73971 6.92116 2.71437 6.5489 4.66074L4.98136 5.14622C5.41739 3.66163 6.4528 1.24163 8.29595 1.24163Z" fill="#95BF46"/>
<path d="M15.3861 4.26597C14.8523 4.22585 14.3184 4.18606 13.7845 4.14658C13.7845 4.14658 12.7224 3.09213 12.6058 2.97542C12.5622 2.932 12.5034 2.90974 12.4419 2.90015L11.5839 20.4504L17.7319 19.1204C17.7319 19.1204 15.5735 4.52741 15.5599 4.42741C15.5461 4.32741 15.4585 4.27206 15.3861 4.26597Z" fill="#5E8E3E"/>
<path d="M9.49597 7.66333L8.73782 9.91854C8.73782 9.91854 8.07357 9.56402 7.25933 9.56402C6.06563 9.56402 6.00556 10.3131 6.00556 10.5019C6.00556 11.5319 8.69049 11.9266 8.69049 14.3392C8.69049 16.2373 7.48659 17.4596 5.8633 17.4596C3.91535 17.4596 2.91919 16.2472 2.91919 16.2472L3.44076 14.524C3.44076 14.524 4.46474 15.4031 5.32878 15.4031C5.89337 15.4031 6.12303 14.9585 6.12303 14.6337C6.12303 13.2902 3.92029 13.2303 3.92029 11.0225C3.92029 9.16436 5.25398 7.36621 7.94618 7.36621C8.9835 7.36621 9.49597 7.66333 9.49597 7.66333Z" fill="white"/>
</g>
<defs>
<clipPath id="clip0_13_578">
<rect width="17.54" height="20" fill="white" transform="translate(0.22998 0.5)"/>
</clipPath>
</defs>
</svg>
